<svg width="18" height="17" viewBox="0 0 18 17" fill="none" xmlns="http://www.w3.org/2000/svg">
<path d="M16.625 14.375L12.875 10.625C13.7188 9.375 14.1562 7.8125 13.9375 6.125C13.5312 3.25 11.1875 0.9375 8.34375 0.5625C4.09375 0.03125 0.5 3.625 1.03125 7.875C1.40625 10.7188 3.71875 13.0625 6.59375 13.4688C8.28125 13.6875 9.84375 13.25 11.125 12.4062L14.8438 16.1562C15.3438 16.625 16.125 16.625 16.625 16.1562C17.0938 15.6562 17.0938 14.875 16.625 14.375ZM3.46875 7C3.46875 4.8125 5.25 3 7.46875 3C9.65625 3 11.4688 4.8125 11.4688 7C11.4688 9.21875 9.65625 11 7.46875 11C5.25 11 3.46875 9.21875 3.46875 7Z" fill="white"/>
</svg>
