<svg width="120" height="35" viewBox="0 0 120 35" fill="none" xmlns="http://www.w3.org/2000/svg">
  <g clip-path="url(#clip0_790_170)">
    <mask id="mask0_790_170" style="mask-type:luminance" maskUnits="userSpaceOnUse" x="0" y="0"
      width="120" height="35">
      <path d="M119.32 0H0V35H119.32V0Z" fill="white" />
    </mask>
    <g mask="url(#mask0_790_170)">
      <path
        d="M19.0421 9.67117V12.7645C19.0421 18.6418 15.8214 21.9808 9.75305 21.9808C3.68468 21.9808 0.454895 18.8783 0.454895 12.7645V9.67117C0.454895 3.5937 3.83935 0.454895 9.75305 0.454895C15.6667 0.454895 19.0421 3.75747 19.0421 9.67117ZM6.3322 9.35274V13.092C6.3322 15.4302 7.41486 16.6311 9.75305 16.6311C12.0912 16.6311 13.1739 15.4211 13.1739 13.092V9.35274C13.1739 7.02365 12.0821 5.81362 9.75305 5.81362C7.42396 5.81362 6.3322 7.02365 6.3322 9.35274Z"
        fill="#262321" />
      <path
        d="M32.8711 0.736933C34.354 1.05536 35.1638 2.06524 35.1638 3.51182C35.1638 5.04029 33.9992 6.16844 32.3434 6.16844C31.5428 6.16844 30.7785 5.92279 30.0507 5.92279C29.1227 5.92279 28.6405 6.52326 28.6405 7.36937V19.0785C28.6405 20.8071 27.3941 21.9808 25.7018 21.9808C24.0096 21.9808 22.7632 20.8162 22.7632 19.0785V7.21471C22.7632 3.02963 25.3379 0.454895 29.6413 0.454895C30.7694 0.454895 31.7338 0.491287 32.862 0.736933"
        fill="#262321" />
      <path
        d="M54.4788 7.61502V18.1505C54.4788 19.315 53.7965 20.5251 52.4318 21.0073C50.8578 21.5713 48.365 21.9717 45.8357 21.9717C40.3678 21.9717 37.0289 19.7154 37.0289 15.2118C37.0289 10.308 40.7681 8.53391 45.7538 8.53391H49.0109V7.73329C49.0109 6.65063 48.2467 5.52248 46.1541 5.52248C44.8622 5.52248 43.816 5.76812 43.0517 6.05016C42.1692 6.36859 41.4414 6.69612 40.6408 6.69612C39.3488 6.69612 38.1024 5.61346 38.1024 4.08499C38.1024 3.20249 38.5482 2.43825 39.3488 1.95606C40.1495 1.47387 42.6878 0.463989 45.9904 0.463989C50.6577 0.463989 54.4788 2.75668 54.4788 7.62411M45.672 13.2922C43.3793 13.2922 42.4967 13.8562 42.4967 15.1391C42.4967 16.4219 43.3793 16.9041 45.672 16.9041C46.882 16.9041 48.001 16.8222 49.0109 16.5856V13.2831H45.672V13.2922Z"
        fill="#262321" />
      <path
        d="M76.3595 9.26175V19.0785C76.3595 20.8071 75.1131 21.9808 73.4208 21.9808C71.7286 21.9808 70.4822 20.8162 70.4822 19.0785V8.94332C70.4822 6.88718 69.4723 5.80451 67.3889 5.80451C66.3426 5.80451 65.3418 5.92279 64.3683 6.16843V19.0785C64.3683 20.8071 63.1219 21.9808 61.4297 21.9808C59.7374 21.9808 58.491 20.8162 58.491 19.0785V4.72185C58.491 3.22978 59.419 2.02884 60.8201 1.54665C62.8308 0.864301 65.1235 0.463989 67.3798 0.463989C73.3299 0.463989 76.3504 3.23888 76.3504 9.27085"
        fill="#262321" />
      <path
        d="M95.4107 1.53756C96.8209 1.98336 97.7853 3.26618 97.7853 4.71276V21.817C97.7853 26.8846 94.328 30.5511 89.0148 30.5511C86.522 30.5511 84.1838 30.0689 82.3369 29.059C81.4089 28.5768 80.9722 27.7307 80.9722 26.7663C80.9722 25.3561 81.9002 24.228 83.5833 24.228C83.9836 24.228 84.4658 24.3462 84.8297 24.51C86.2763 25.156 87.3226 25.4744 89.0148 25.4744C91.5895 25.4744 92.2719 23.6639 92.2719 22.0172V21.171C91.1892 21.6532 89.9428 21.9717 88.4871 21.9717C82.6098 21.9717 79.8804 18.6327 79.8804 13.1193V9.25266C79.8804 3.33896 83.2194 0.445801 88.8511 0.445801C91.0983 0.445801 93.3182 0.846113 95.4107 1.52846M85.7577 8.93423V13.4832C85.7577 15.8123 86.8859 16.622 88.8511 16.622C89.9337 16.622 91.0255 16.3036 91.908 15.694V6.16844C90.9436 5.93189 89.8973 5.80452 88.8511 5.80452C86.7585 5.80452 85.7577 6.96907 85.7577 8.94333"
        fill="#262321" />
      <path
        d="M118.865 9.18898V10.4354C118.865 11.9275 117.737 13.4559 115.608 13.4559H106.874C106.874 14.9025 107.402 16.9132 110.131 16.9132C111.905 16.9132 112.988 16.5947 113.716 16.3491C114.517 16.0671 114.999 15.9033 115.526 15.9033C116.973 15.9033 118.138 17.0678 118.138 18.478C118.138 19.4424 117.737 20.2521 116.773 20.7343C114.917 21.6623 111.46 21.9808 110.131 21.9808C104.463 21.9808 101.406 18.2415 101.406 13.2467V9.17988C101.406 3.99402 104.745 0.445801 110.131 0.445801C115.517 0.445801 118.865 3.98492 118.865 9.17988M106.874 8.86145H113.388C113.27 6.76891 112.46 5.52248 110.131 5.52248C107.802 5.52248 106.911 6.8144 106.874 8.86145Z"
        fill="#262321" />
      <path
        d="M2.99324 26.9938H4.94931C5.4588 26.9938 5.8955 27.0393 6.25942 27.1393C6.62334 27.2303 6.95087 27.4123 7.2511 27.667C8.02443 28.3312 8.40655 29.3319 8.40655 30.6875C8.40655 31.1334 8.37016 31.5428 8.28827 31.9067C8.20639 32.2706 8.08812 32.6072 7.92435 32.8984C7.76059 33.1986 7.56043 33.4624 7.30569 33.6899C7.10553 33.8718 6.88718 34.0083 6.65063 34.1175C6.41409 34.2267 6.15934 34.2995 5.8864 34.3449C5.61346 34.3904 5.30413 34.4086 4.9675 34.4086H3.02963C2.75669 34.4086 2.54744 34.3631 2.41097 34.2813C2.2745 34.1994 2.18352 34.0811 2.13803 33.9264C2.09254 33.7809 2.07434 33.5807 2.07434 33.3442V27.9036C2.07434 27.576 2.14712 27.3486 2.29269 27.203C2.43826 27.0574 2.67481 26.9847 2.99324 26.9847M3.57551 28.1765V33.2168H4.71276C4.95841 33.2168 5.15856 33.2168 5.30413 33.1986C5.4497 33.1804 5.59527 33.1531 5.74083 33.0985C5.8955 33.0439 6.02287 32.9711 6.13205 32.8711C6.63244 32.4435 6.88718 31.7156 6.88718 30.6785C6.88718 29.9415 6.77801 29.3956 6.55056 29.0317C6.3322 28.6678 6.05926 28.4312 5.73174 28.3403C5.40421 28.2402 5.01299 28.1856 4.55809 28.1856H3.56641L3.57551 28.1765Z"
        fill="#FE7A00" />
      <path
        d="M14.766 33.5807L14.4112 32.6527H11.3907L11.0359 33.608C10.8994 33.981 10.7811 34.2267 10.681 34.3631C10.581 34.4905 10.4263 34.5542 10.1988 34.5542C10.0078 34.5542 9.84402 34.4814 9.69845 34.3449C9.55289 34.2085 9.4801 34.0447 9.4801 33.8718C9.4801 33.7718 9.4983 33.6626 9.52559 33.5534C9.56198 33.4442 9.61657 33.2987 9.68936 33.1076L11.5908 28.2857C11.6454 28.1492 11.7091 27.9763 11.7819 27.7853C11.8547 27.5942 11.9366 27.4305 12.0275 27.3031C12.1185 27.1757 12.2277 27.0665 12.3642 26.9938C12.5006 26.9119 12.6735 26.8755 12.8828 26.8755C13.092 26.8755 13.2649 26.9119 13.4104 26.9938C13.5469 27.0756 13.6652 27.1757 13.7471 27.3031C13.8289 27.4305 13.9108 27.5669 13.9654 27.7034C14.02 27.849 14.1019 28.04 14.1929 28.2766L16.1307 33.0712C16.2854 33.4351 16.3582 33.699 16.3582 33.8628C16.3582 34.0356 16.2854 34.1903 16.1398 34.3358C15.9943 34.4814 15.8214 34.5542 15.6213 34.5542C15.503 34.5542 15.4029 34.536 15.321 34.4905C15.2391 34.445 15.1664 34.3904 15.1118 34.3177C15.0572 34.2449 14.9935 34.1357 14.9298 33.981C14.8661 33.8355 14.8115 33.699 14.7569 33.5807M11.7819 31.5155H14.0018L12.8828 28.4494L11.7819 31.5155Z"
        fill="#FE7A00" />
      <path
        d="M21.9717 28.2311H20.334V33.6262C20.334 33.9355 20.2612 34.163 20.1248 34.3176C19.9883 34.4723 19.8063 34.5451 19.588 34.5451C19.3696 34.5451 19.1877 34.4723 19.0421 34.3176C18.9056 34.163 18.8329 33.9355 18.8329 33.6262V28.2311H17.1952C16.9405 28.2311 16.7494 28.1765 16.622 28.0582C16.4947 27.949 16.4401 27.7944 16.4401 27.6124C16.4401 27.4305 16.5038 27.2667 16.6311 27.1575C16.7585 27.0483 16.9496 26.9938 17.1952 26.9938H21.9717C22.2264 26.9938 22.4266 27.0483 22.5539 27.1666C22.6813 27.2849 22.745 27.4305 22.745 27.6124C22.745 27.7944 22.6813 27.949 22.5539 28.0582C22.4266 28.1674 22.2355 28.2311 21.9808 28.2311"
        fill="#FE7A00" />
      <path
        d="M28.04 33.5807L27.6852 32.6527H24.6647L24.3098 33.608C24.1734 33.981 24.0551 34.2267 23.955 34.3631C23.8549 34.4905 23.7003 34.5542 23.4728 34.5542C23.2818 34.5542 23.118 34.4814 22.9724 34.3449C22.8269 34.2085 22.7541 34.0447 22.7541 33.8718C22.7541 33.7718 22.7723 33.6626 22.8087 33.5534C22.8451 33.4442 22.8997 33.2987 22.9724 33.1076L24.8739 28.2857C24.9285 28.1492 24.9922 27.9763 25.065 27.7853C25.1378 27.5942 25.2196 27.4305 25.3106 27.3031C25.3925 27.1757 25.5108 27.0665 25.6473 26.9938C25.7837 26.9119 25.9566 26.8755 26.1658 26.8755C26.3751 26.8755 26.548 26.9119 26.6935 26.9938C26.8391 27.0756 26.9483 27.1757 27.0301 27.3031C27.112 27.4305 27.1848 27.5669 27.2485 27.7034C27.3031 27.849 27.385 28.04 27.476 28.2766L29.4138 33.0712C29.5685 33.4351 29.6413 33.699 29.6413 33.8628C29.6413 34.0356 29.5685 34.1903 29.4229 34.3358C29.2774 34.4814 29.1045 34.5542 28.9043 34.5542C28.7861 34.5542 28.686 34.536 28.6041 34.4905C28.5222 34.445 28.4494 34.3904 28.3948 34.3177C28.3403 34.2449 28.2766 34.1357 28.2129 33.981C28.1492 33.8355 28.0946 33.699 28.04 33.5807ZM25.065 31.5155H27.2849L26.1658 28.4494L25.065 31.5155Z"
        fill="#FE7A00" />
      <path
        d="M37.1744 33.2987L35.9826 28.5677V33.6899C35.9826 33.9719 35.9189 34.1812 35.7915 34.3267C35.6641 34.4723 35.5004 34.536 35.2911 34.536C35.0819 34.536 34.9272 34.4632 34.7998 34.3267C34.6725 34.1903 34.6088 33.9719 34.6088 33.6899V27.8126C34.6088 27.4851 34.6907 27.2667 34.8635 27.1575C35.0364 27.0484 35.2638 26.9847 35.5459 26.9847H36.0099C36.2919 26.9847 36.4921 27.012 36.6194 27.0574C36.7468 27.112 36.8378 27.203 36.9015 27.3304C36.9652 27.4669 37.0288 27.6761 37.1107 27.9763L38.1934 32.0432L39.2761 27.9763C39.3579 27.6761 39.4216 27.4669 39.4853 27.3304C39.549 27.203 39.64 27.112 39.7673 27.0574C39.8947 27.0029 40.0949 26.9847 40.3769 26.9847H40.8409C41.132 26.9847 41.3595 27.0393 41.5233 27.1575C41.6961 27.2667 41.778 27.4851 41.778 27.8126V33.6899C41.778 33.9719 41.7143 34.1812 41.5869 34.3267C41.4596 34.4723 41.2958 34.536 41.0775 34.536C40.8773 34.536 40.7135 34.4632 40.5862 34.3267C40.4588 34.1812 40.3951 33.9719 40.3951 33.6899V28.5677L39.2033 33.2987C39.1214 33.608 39.0577 33.8355 39.0122 33.9719C38.9667 34.1175 38.8757 34.2449 38.7393 34.3631C38.6119 34.4814 38.4299 34.536 38.1934 34.536C38.0205 34.536 37.8659 34.4996 37.7476 34.4268C37.6293 34.354 37.5292 34.254 37.4656 34.1357C37.3928 34.0174 37.3473 33.89 37.3018 33.7445C37.2654 33.5989 37.2199 33.4533 37.1835 33.2987"
        fill="#FE7A00" />
      <path
        d="M44.2163 33.6262V27.7762C44.2163 27.476 44.289 27.2485 44.4255 27.0938C44.562 26.9392 44.7439 26.8664 44.9623 26.8664C45.1807 26.8664 45.3717 26.9392 45.5082 27.0938C45.6447 27.2485 45.7174 27.476 45.7174 27.7762V33.6262C45.7174 33.9355 45.6447 34.163 45.5082 34.3177C45.3717 34.4723 45.1897 34.5451 44.9623 34.5451C44.7348 34.5451 44.5711 34.4723 44.4255 34.3177C44.289 34.163 44.2163 33.9355 44.2163 33.6353"
        fill="#FE7A00" />
      <path
        d="M50.1573 27.7671L53.0504 32.1432V27.7307C53.0504 27.4396 53.1141 27.2303 53.2324 27.0847C53.3507 26.9392 53.5235 26.8664 53.7328 26.8664C53.942 26.8664 54.1149 26.9392 54.2423 27.0847C54.3696 27.2303 54.4333 27.4396 54.4333 27.7307V33.5716C54.4333 34.2267 54.1604 34.5451 53.6236 34.5451C53.4871 34.5451 53.3689 34.5269 53.2597 34.4905C53.1505 34.4541 53.0504 34.3904 52.9594 34.3086C52.8685 34.2267 52.7775 34.1266 52.6956 34.0083C52.6137 33.8991 52.5318 33.7809 52.45 33.6626L49.6296 29.341V33.6899C49.6296 33.9719 49.5659 34.1903 49.4294 34.3359C49.293 34.4814 49.1292 34.5542 48.9199 34.5542C48.7107 34.5542 48.5378 34.4814 48.4104 34.3359C48.2831 34.1903 48.2194 33.9719 48.2194 33.699V27.9673C48.2194 27.7216 48.2467 27.5305 48.3013 27.3941C48.365 27.2394 48.4741 27.1211 48.6197 27.0211C48.7653 26.921 48.929 26.8755 49.1019 26.8755C49.2384 26.8755 49.3566 26.8937 49.4476 26.9392C49.5477 26.9847 49.6296 27.0393 49.7024 27.112C49.7751 27.1848 49.8479 27.2849 49.9207 27.4032C49.9935 27.5215 50.0754 27.6397 50.1573 27.7762"
        fill="#FE7A00" />
      <path
        d="M56.9353 33.6262V27.7762C56.9353 27.476 57.0081 27.2485 57.1445 27.0938C57.281 26.9392 57.463 26.8664 57.6813 26.8664C57.8997 26.8664 58.0907 26.9392 58.2272 27.0938C58.3637 27.2394 58.4364 27.476 58.4364 27.7762V33.6262C58.4364 33.9355 58.3637 34.163 58.2272 34.3177C58.0907 34.4723 57.9088 34.5451 57.6813 34.5451C57.4539 34.5451 57.2901 34.4723 57.1445 34.3177C57.0081 34.163 56.9353 33.9355 56.9353 33.6353"
        fill="#FE7A00" />
      <path
        d="M62.8763 27.7671L65.7694 32.1432V27.7307C65.7694 27.4396 65.8331 27.2303 65.9514 27.0847C66.0788 26.9392 66.2425 26.8664 66.4518 26.8664C66.661 26.8664 66.8339 26.9392 66.9613 27.0847C67.0886 27.2303 67.1523 27.4396 67.1523 27.7307V33.5716C67.1523 34.2267 66.8794 34.5451 66.3426 34.5451C66.2061 34.5451 66.0879 34.5269 65.9787 34.4905C65.8695 34.4541 65.7694 34.3904 65.6784 34.3086C65.5875 34.2267 65.4965 34.1266 65.4146 34.0083C65.3327 33.8991 65.2508 33.7809 65.169 33.6626L62.3486 29.341V33.6899C62.3486 33.9719 62.2849 34.1903 62.1484 34.3359C62.021 34.4814 61.8482 34.5542 61.6389 34.5542C61.4297 34.5542 61.2568 34.4814 61.1294 34.3359C61.0021 34.1903 60.9384 33.9719 60.9384 33.699V27.9673C60.9384 27.7216 60.9657 27.5305 61.0203 27.3941C61.084 27.2394 61.1931 27.1211 61.3387 27.0211C61.4843 26.921 61.648 26.8755 61.8209 26.8755C61.9574 26.8755 62.0756 26.8937 62.1666 26.9392C62.2667 26.9847 62.3486 27.0393 62.4214 27.112C62.4941 27.1848 62.5669 27.2849 62.6488 27.4032C62.7216 27.5215 62.8035 27.6397 62.8854 27.7762"
        fill="#FE7A00" />
      <path
        d="M75.9501 31.3972V32.8165C75.9501 33.0075 75.9319 33.1531 75.8955 33.2714C75.8591 33.3806 75.7954 33.4897 75.6953 33.5807C75.5953 33.6717 75.4679 33.7627 75.3132 33.8446C74.8674 34.0902 74.4307 34.2631 74.0122 34.3722C73.5937 34.4814 73.1479 34.536 72.6566 34.536C72.0834 34.536 71.5648 34.445 71.0918 34.2722C70.6187 34.0993 70.2183 33.8446 69.8908 33.5079C69.5633 33.1713 69.3085 32.771 69.1266 32.2888C68.9537 31.8157 68.8627 31.2789 68.8627 30.6967C68.8627 30.1144 68.9537 29.5958 69.1175 29.1136C69.2904 28.6314 69.5451 28.2311 69.8817 27.8945C70.2183 27.5578 70.6187 27.3031 71.1009 27.1302C71.583 26.9483 72.1198 26.8664 72.7294 26.8664C73.2298 26.8664 73.6665 26.9301 74.0577 27.0665C74.4398 27.203 74.7582 27.3668 74.9948 27.5669C75.2313 27.7671 75.4133 27.9854 75.5407 28.2129C75.6589 28.4403 75.7226 28.6405 75.7226 28.8134C75.7226 29.0044 75.6499 29.1591 75.5134 29.2956C75.3769 29.432 75.204 29.4957 75.013 29.4957C74.9038 29.4957 74.8037 29.4684 74.7037 29.4229C74.6036 29.3683 74.5217 29.3047 74.458 29.2137C74.2761 28.9225 74.1123 28.7042 73.9849 28.5586C73.8575 28.4131 73.6847 28.2857 73.4663 28.1856C73.248 28.0855 72.975 28.0309 72.6293 28.0309C72.2836 28.0309 71.9743 28.0946 71.7013 28.2129C71.4284 28.3312 71.1918 28.504 71.0008 28.7315C70.8097 28.9589 70.6551 29.241 70.555 29.5685C70.4549 29.896 70.4003 30.269 70.4003 30.6694C70.4003 31.5428 70.6005 32.2069 71.0008 32.68C71.4011 33.1531 71.9561 33.3897 72.6748 33.3897C73.0205 33.3897 73.3481 33.3442 73.6574 33.2532C73.9667 33.1622 74.2761 33.0348 74.5854 32.862V31.6519H73.4208C73.1388 31.6519 72.9296 31.6065 72.784 31.5246C72.6384 31.4427 72.5656 31.2971 72.5656 31.097C72.5656 30.9332 72.6293 30.7967 72.7476 30.6876C72.8659 30.5784 73.0296 30.5238 73.2389 30.5238H74.9493C75.1586 30.5238 75.3405 30.542 75.477 30.5784C75.6226 30.6148 75.7408 30.6967 75.8318 30.824C75.9228 30.9514 75.9683 31.1425 75.9683 31.3972"
        fill="#FE7A00" />
    </g>
  </g>
  <defs>
    <clipPath id="clip0_790_170">
      <rect width="119.32" height="35" fill="white" />
    </clipPath>
  </defs>
</svg>
  